<svg width="64" height="64" viewBox="0 0 64 64" fill="none" xmlns="http://www.w3.org/2000/svg">
  <rect x="4" y="4" width="56" height="56" rx="16" fill="#F7F1EA"/>
  <rect x="4.5" y="4.5" width="55" height="55" rx="15.5" stroke="rgba(13,11,10,0.10)"/>

  <g transform="translate(8 8)">
    <circle cx="24" cy="24" r="20" fill="#0D0B0A"/>
    <circle cx="24" cy="24" r="18.25" stroke="rgba(255,255,255,0.16)" stroke-width="1.5"/>

    <g transform="translate(24 24)">
      <path d="M0 -10.5 L6.8 -3.6 L1.2 -1.1 Z" fill="#FFFFFF"/>
      <path d="M9.1 -5.2 L9.8 4.4 L3.6 1.2 Z" fill="#F4EEE4"/>
      <path d="M9.1 5.2 L1.2 10.6 L1.3 3.6 Z" fill="#FFFFFF"/>
      <path d="M0 10.5 L-6.8 3.6 L-1.2 1.1 Z" fill="#FF6A3D"/>
      <path d="M-9.1 5.2 L-9.8 -4.4 L-3.6 -1.2 Z" fill="#F7B14C"/>
      <path d="M-9.1 -5.2 L-1.2 -10.6 L-1.3 -3.6 Z" fill="#FFFFFF"/>
    </g>

    <circle cx="24" cy="24" r="4.8" fill="#0D0B0A" stroke="#FFFFFF" stroke-width="1.8"/>
    <circle cx="24" cy="24" r="1.4" fill="#FFFFFF"/>
  </g>
</svg>
