<svg xmlns="http://www.w3.org/2000/svg" viewBox="0 0 1200 1600"><rect width="1200" height="1600" fill="#0F1D3A"/><path d="M0 0h1200v240L800 170 600 250 390 165 0 245Z" fill="#15294E"/><path d="M0 1600h1200v-255l-385 95-210-75-220 80L0 1365Z" fill="#132443"/><g fill="none" stroke="#B58A2A" stroke-width="4"><rect x="72" y="72" width="1056" height="1456" rx="38"/><path d="M95 300H1105M95 1300H1105"/></g><g fill="#F2D28A"><path d="M600 120 710 172 600 224 490 172Z"/><path d="M705 175v86" stroke="#F2D28A" stroke-width="12"/></g><g fill="#B58A2A" opacity=".55"><circle cx="160" cy="390" r="8"/><circle cx="1040" cy="1210" r="8"/><circle cx="1010" cy="430" r="5"/><circle cx="190" cy="1170" r="5"/></g></svg>